<svg xmlns="http://www.w3.org/2000/svg" width="16" height="16" class="bi bi-box-arrow-in-left" viewBox="0 0 16 16">
  <defs>
    <linearGradient id="lgrad" x1="0%" y1="100%" x2="100%" y2="0%" >
      <stop offset="0%" style="stop-color:rgb(2,0,36);stop-opacity:1.00" />
      <stop offset="35%" style="stop-color:rgb(9,9,115);stop-opacity:1.00" />
      <stop offset="100%" style="stop-color:rgb(0,212,255);stop-opacity:1.00" />
    </linearGradient>
  </defs>
  <path fill-rule="evenodd" d="M10 3.5a.5.5 0 0 0-.5-.5h-8a.5.5 0 0 0-.5.5v9a.5.5 0 0 0 .5.5h8a.5.5 0 0 0 .5-.5v-2a.5.5 0 0 1 1 0v2A1.5 1.5 0 0 1 9.5 14h-8A1.5 1.5 0 0 1 0 12.5v-9A1.5 1.5 0 0 1 1.5 2h8A1.5 1.5 0 0 1 11 3.5v2a.5.5 0 0 1-1 0z" fill="url(#lgrad)"/>
  <path fill-rule="evenodd" d="M4.146 8.354a.5.5 0 0 1 0-.708l3-3a.5.5 0 1 1 .708.708L5.707 7.5H14.5a.5.5 0 0 1 0 1H5.707l2.147 2.146a.5.5 0 0 1-.708.708z" fill="url(#lgrad)"/>
</svg>
