<svg xmlns="http://www.w3.org/2000/svg" width="16" height="16" class="bi bi-dash-circle" viewBox="0 0 16 16">
  <defs>
    <linearGradient gradientTransform="rotate(45, 0.5, 0.5)" x1="50%" y1="0%" x2="50%" y2="100%" id="ffflux-gradient">
      <stop stop-color="#e94f4f" stop-opacity="1" offset="0%">
      </stop>
      <stop stop-color="hsl(0, 98%, 20%)" stop-opacity="1" offset="100%">
      </stop>
    </linearGradient>
  </defs>
  <path d="M8 15A7 7 0 1 1 8 1a7 7 0 0 1 0 14m0 1A8 8 0 1 0 8 0a8 8 0 0 0 0 16" fill="url(#ffflux-gradient)"/>
  <path d="M4 8a.5.5 0 0 1 .5-.5h7a.5.5 0 0 1 0 1h-7A.5.5 0 0 1 4 8" fill="url(#ffflux-gradient)"/>
</svg>
