<svg xmlns="http://www.w3.org/2000/svg" width="16" height="16" class="bi bi-funnel" viewBox="0 0 16 16">
  <defs>
    <linearGradient id="lgrad" x1="0%" y1="100%" x2="100%" y2="0%" >
      <stop offset="0%" style="stop-color:rgb(2,0,36);stop-opacity:1.00" />
      <stop offset="35%" style="stop-color:rgb(9,9,115);stop-opacity:1.00" />
      <stop offset="100%" style="stop-color:rgb(0,212,255);stop-opacity:1.00" />
    </linearGradient>
  </defs>
  <path d="M1.5 1.5A.5.5 0 0 1 2 1h12a.5.5 0 0 1 .5.5v2a.5.5 0 0 1-.128.334L10 8.692V13.5a.5.5 0 0 1-.342.474l-3 1A.5.5 0 0 1 6 14.5V8.692L1.628 3.834A.5.5 0 0 1 1.5 3.5zm1 .5v1.308l4.372 4.858A.5.5 0 0 1 7 8.5v5.306l2-.666V8.5a.5.5 0 0 1 .128-.334L13.5 3.308V2z" fill="url(#lgrad)"/>
</svg>
